<svg width="35" height="32" viewBox="0 0 35 32" fill="none" xmlns="http://www.w3.org/2000/svg">
<rect x="0.309814" width="33.8744" height="32" rx="16" fill="#EBFBFE"/>
<path fill-rule="evenodd" clip-rule="evenodd" d="M12.7469 14C12.7469 11.5147 14.7616 9.5 17.2469 9.5C19.7322 9.5 21.7469 11.5147 21.7469 14C21.7469 16.4853 19.7322 18.5 17.2469 18.5C14.7616 18.5 12.7469 16.4853 12.7469 14Z" fill="#0B87AC"/>
<path fill-rule="evenodd" clip-rule="evenodd" d="M8.99816 28.1053C9.0755 23.6156 12.7389 20 17.2469 20C21.755 20 25.4185 23.6157 25.4957 28.1056C25.5008 28.4034 25.3292 28.676 25.0586 28.8002C22.6796 29.8918 20.0334 30.5 17.2472 30.5C14.4608 30.5 11.8143 29.8917 9.43523 28.7999C9.16456 28.6757 8.99303 28.4031 8.99816 28.1053Z" fill="#0B87AC"/>
</svg>
