<svg width="23" height="20" viewBox="0 0 23 20" fill="none" xmlns="http://www.w3.org/2000/svg">
<path d="M14.4047 0.0489789C13.7259 -0.142387 13.0192 0.24425 12.8236 0.908172L7.71292 18.4045C7.51727 19.0684 7.91255 19.7597 8.59131 19.951C9.27007 20.1424 9.97678 19.7557 10.1724 19.0918L15.2831 1.59553C15.4787 0.931605 15.0835 0.240345 14.4047 0.0489789ZM16.984 5.36426C16.4849 5.85244 16.4849 6.64524 16.984 7.13342L19.9146 10L16.984 12.8666C16.4849 13.3548 16.4849 14.1476 16.984 14.6357C17.4831 15.1239 18.2936 15.1239 18.7927 14.6357L22.6257 10.8865C23.1248 10.3984 23.1248 9.60555 22.6257 9.11737L18.7927 5.36817C18.2936 4.87999 17.4831 4.87999 16.984 5.36817V5.36426ZM6.01601 5.36426C5.51693 4.87608 4.70641 4.87608 4.20732 5.36426L0.374316 9.11347C-0.124772 9.60165 -0.124772 10.3944 0.374316 10.8826L4.20732 14.6318C4.70641 15.12 5.51693 15.12 6.01601 14.6318C6.5151 14.1437 6.5151 13.3509 6.01601 12.8627L3.08537 10L6.01202 7.13342C6.51111 6.64524 6.51111 5.85244 6.01202 5.36426H6.01601Z" fill="#28C242"/>
</svg>
