<svg width="25" height="25" viewBox="0 0 25 25" fill="none" xmlns="http://www.w3.org/2000/svg">
<rect width="25" height="25" fill="white"/>
<path fill-rule="evenodd" clip-rule="evenodd" d="M4.16659 21.875H16.6666C17.2419 21.875 17.7083 21.4086 17.7083 20.8333V4.16666C17.7083 3.59136 17.2419 3.12499 16.6666 3.12499H4.16659C3.59129 3.12499 3.12492 3.59136 3.12492 4.16666V20.8333C3.12492 21.4086 3.59129 21.875 4.16659 21.875ZM16.6666 22.9167H4.16659C3.01599 22.9167 2.08325 21.9839 2.08325 20.8333V4.16666C2.08325 3.01607 3.01599 2.08333 4.16659 2.08333H16.6666C17.8172 2.08333 18.7499 3.01607 18.7499 4.16666V20.8333C18.7499 21.9839 17.8172 22.9167 16.6666 22.9167Z" fill="#333333"/>
<path fill-rule="evenodd" clip-rule="evenodd" d="M9.375 6.77083C9.375 6.48318 9.60818 6.25 9.89583 6.25H16.1458C16.4335 6.25 16.6667 6.48318 16.6667 6.77083C16.6667 7.05849 16.4335 7.29167 16.1458 7.29167H9.89583C9.60818 7.29167 9.375 7.05849 9.375 6.77083Z" fill="#333333"/>
<path fill-rule="evenodd" clip-rule="evenodd" d="M9.375 8.85416C9.375 8.56651 9.60818 8.33333 9.89583 8.33333H16.1458C16.4335 8.33333 16.6667 8.56651 16.6667 8.85416C16.6667 9.14182 16.4335 9.37499 16.1458 9.37499H9.89583C9.60818 9.37499 9.375 9.14182 9.375 8.85416Z" fill="#333333"/>
<path fill-rule="evenodd" clip-rule="evenodd" d="M9.375 13.0208C9.375 12.7332 9.60818 12.5 9.89583 12.5H16.1458C16.4335 12.5 16.6667 12.7332 16.6667 13.0208C16.6667 13.3085 16.4335 13.5417 16.1458 13.5417H9.89583C9.60818 13.5417 9.375 13.3085 9.375 13.0208Z" fill="#333333"/>
<path fill-rule="evenodd" clip-rule="evenodd" d="M9.375 15.1042C9.375 14.8165 9.60818 14.5833 9.89583 14.5833H16.1458C16.4335 14.5833 16.6667 14.8165 16.6667 15.1042C16.6667 15.3918 16.4335 15.625 16.1458 15.625H9.89583C9.60818 15.625 9.375 15.3918 9.375 15.1042Z" fill="#333333"/>
<path fill-rule="evenodd" clip-rule="evenodd" d="M5.20841 13.5417V15.1042H6.77091V13.5417H5.20841ZM4.68758 12.5H7.29175C7.5794 12.5 7.81258 12.7332 7.81258 13.0208V15.625C7.81258 15.9127 7.5794 16.1458 7.29175 16.1458H4.68758C4.39994 16.1458 4.16675 15.9127 4.16675 15.625V13.0208C4.16675 12.7332 4.39994 12.5 4.68758 12.5Z" fill="#333333"/>
<path fill-rule="evenodd" clip-rule="evenodd" d="M8.18086 6.40255C8.38425 6.60594 8.38425 6.93573 8.18086 7.13912L5.72925 9.59073L4.31929 8.18078C4.1159 7.9774 4.1159 7.64761 4.31929 7.44422C4.5227 7.24084 4.85247 7.24084 5.05587 7.44422L5.72925 8.11761L7.4443 6.40255C7.64769 6.19917 7.97748 6.19917 8.18086 6.40255Z" fill="#333333"/>
<path fill-rule="evenodd" clip-rule="evenodd" d="M21.8751 12.5H20.8334V20.4861L21.3542 21.1806L21.8751 20.4861V12.5ZM22.9167 20.8333L21.3542 22.9167L19.7917 20.8333V11.4583H22.9167V20.8333Z" fill="#333333"/>
<path fill-rule="evenodd" clip-rule="evenodd" d="M21.8751 8.85417H20.8334V9.89583H21.8751V8.85417ZM20.8334 7.8125H21.8751C22.4504 7.8125 22.9167 8.27885 22.9167 8.85417V10.9375H19.7917V8.85417C19.7917 8.27885 20.2581 7.8125 20.8334 7.8125Z" fill="#333333"/>
</svg>
