<svg width="25" height="25" viewBox="0 0 25 25" fill="none" xmlns="http://www.w3.org/2000/svg">
<path d="M12.5 2.5C18.0234 2.5 22.5 6.97656 22.5 12.5C22.5 18.0234 18.0234 22.5 12.5 22.5C6.97656 22.5 2.5 18.0234 2.5 12.5C2.5 6.97656 6.97656 2.5 12.5 2.5ZM11.5625 7.1875V12.5C11.5625 12.8125 11.7188 13.1055 11.9805 13.2812L15.7305 15.7812C16.1602 16.0703 16.7422 15.9531 17.0312 15.5195C17.3203 15.0859 17.2031 14.5078 16.7695 14.2188L13.4375 12V7.1875C13.4375 6.66797 13.0195 6.25 12.5 6.25C11.9805 6.25 11.5625 6.66797 11.5625 7.1875Z" fill="#05DF72"/>
</svg>
